<svg width="16" height="18" viewBox="0 0 16 18" fill="none" xmlns="http://www.w3.org/2000/svg">
<path d="M7.99956 0C5.52243 0 3.49984 2.02271 3.49984 4.5C3.49984 6.97729 5.52243 9 7.99956 9C10.4767 9 12.4993 6.97729 12.4993 4.5C12.4993 2.02271 10.4767 0 7.99956 0ZM7.99956 1.35C9.74715 1.35 11.1494 2.75231 11.1494 4.5C11.1494 6.24769 9.74715 7.65 7.99956 7.65C6.25198 7.65 4.84976 6.24769 4.84976 4.5C4.84976 2.75231 6.25198 1.35 7.99956 1.35ZM2.59023 10.8C1.60937 10.8 0.800003 11.6094 0.800003 12.5903V13.275C0.800003 14.8969 1.82561 16.1515 3.18785 16.9031C4.55008 17.6547 6.27532 18 7.99956 18C9.72381 18 11.449 17.6547 12.8113 16.9031C13.9728 16.2623 14.8469 15.2382 15.0919 13.95H15.2V12.5903C15.2 11.6094 14.3898 10.8 13.4089 10.8H2.59023ZM2.59023 12.15H13.4089C13.6601 12.15 13.8501 12.3391 13.8501 12.5903V12.6H13.8492V13.275C13.8492 14.3531 13.2437 15.1235 12.1592 15.7219C11.0747 16.3203 9.53762 16.65 7.99956 16.65C6.46151 16.65 4.92445 16.3203 3.83995 15.7219C2.75546 15.1235 2.14992 14.3531 2.14992 13.275V12.5903C2.14992 12.3391 2.33906 12.15 2.59023 12.15Z" fill="#65C0D4"/>
</svg>
