<svg width="18" height="11" viewBox="0 0 18 11" fill="none" xmlns="http://www.w3.org/2000/svg">
<path d="M8.99487 0C4.75006 0 1.00991 2.92822 0.0176716 6.76525C-0.0194299 6.90909 0.00239891 7.0617 0.0783558 7.18952C0.154313 7.31733 0.278176 7.40988 0.422697 7.44681C0.567217 7.48373 0.720557 7.46201 0.848984 7.38641C0.97741 7.31082 1.0704 7.18754 1.1075 7.04371C1.9625 3.73741 5.27477 1.11965 8.99487 1.11965C12.715 1.11965 16.0377 3.73833 16.8925 7.04371C16.9296 7.18754 17.0226 7.31082 17.151 7.38641C17.2794 7.46201 17.4328 7.48373 17.5773 7.44681C17.7218 7.40988 17.8457 7.31733 17.9216 7.18952C17.9976 7.0617 18.0194 6.90909 17.9823 6.76525C16.9899 2.92729 13.2397 0 8.99487 0ZM9.00073 2.98572C7.00573 2.98572 5.37675 4.60697 5.37675 6.5925C5.37675 8.57802 7.00573 10.2 9.00073 10.2C10.9957 10.2 12.6255 8.57802 12.6255 6.5925C12.6255 4.60697 10.9957 2.98572 9.00073 2.98572ZM9.00073 4.10537C10.3877 4.10537 11.5005 5.21207 11.5005 6.5925C11.5005 7.97293 10.3877 9.08035 9.00073 9.08035C7.61372 9.08035 6.50174 7.97292 6.50174 6.5925C6.50174 5.21207 7.61372 4.10537 9.00073 4.10537Z" fill="#65C0D4"/>
</svg>
