<svg width="16" height="18" viewBox="0 0 16 18" fill="none" xmlns="http://www.w3.org/2000/svg">
<path d="M8 0C6.01974 0 4.4 1.61974 4.4 3.6V5.4H2.825C1.71463 5.4 0.800003 6.31462 0.800003 7.425V15.975C0.800003 17.0854 1.71463 18 2.825 18H13.175C14.2854 18 15.2 17.0854 15.2 15.975V7.425C15.2 6.31462 14.2854 5.4 13.175 5.4H11.6V3.6C11.6 1.61974 9.98027 0 8 0ZM8 1.35C9.25074 1.35 10.25 2.34926 10.25 3.6V5.4H5.75V3.6C5.75 2.34926 6.74927 1.35 8 1.35ZM2.825 6.75H13.175C13.5559 6.75 13.85 7.04408 13.85 7.425V15.975C13.85 16.3559 13.5559 16.65 13.175 16.65H2.825C2.44408 16.65 2.15 16.3559 2.15 15.975V7.425C2.15 7.04408 2.44408 6.75 2.825 6.75ZM8 10.35C7.64196 10.35 7.29858 10.4922 7.04541 10.7454C6.79223 10.9986 6.65 11.342 6.65 11.7C6.65 12.058 6.79223 12.4014 7.04541 12.6546C7.29858 12.9078 7.64196 13.05 8 13.05C8.35805 13.05 8.70142 12.9078 8.9546 12.6546C9.20777 12.4014 9.35 12.058 9.35 11.7C9.35 11.342 9.20777 10.9986 8.9546 10.7454C8.70142 10.4922 8.35805 10.35 8 10.35Z" fill="#65C0D4"/>
</svg>
