<svg width="31" height="29" viewBox="0 0 31 29" fill="none" xmlns="http://www.w3.org/2000/svg">
<path d="M9.26192 0.928589C6.70191 0.928589 4.61906 3.01145 4.61906 5.57145V20.9286H17.1191C18.8912 20.9286 20.3333 22.3707 20.3333 24.1429V25.9286C20.3333 27.1072 21.2893 28.0643 22.4664 28.07H22.4874C23.6595 28.0643 24.6098 27.114 24.6177 25.9425C24.6184 25.564 24.6191 3.07145 24.6191 3.07145C24.6191 2.2643 24.8993 1.52716 25.3529 0.928589H9.26192ZM28.1905 0.928589C27.0091 0.928589 26.0476 1.89002 26.0476 3.07145V7.35716H28.5476C29.5326 7.35716 30.3333 6.55645 30.3333 5.57145V3.07145C30.3333 1.89002 29.3719 0.928589 28.1905 0.928589ZM2.11906 22.3572C1.13406 22.3572 0.333344 23.1579 0.333344 24.1429V24.8572C0.333344 26.6293 1.77549 28.0714 3.54763 28.0714H19.6386C19.185 27.4729 18.9048 26.7357 18.9048 25.9286V24.1429C18.9048 23.1579 18.1041 22.3572 17.1191 22.3572H2.11906Z" fill="#3D737F"/>
</svg>
