<svg width="140" height="140" viewBox="0 0 140 140" fill="none" xmlns="http://www.w3.org/2000/svg">
<rect x="1" y="1" width="138" height="138" rx="69" fill="#E0F2F6"/>
<path d="M51.8421 40C45.3297 40 40 45.3297 40 51.8421V80.2632C40 86.7755 45.3297 92.1053 51.8421 92.1053H80.2632C86.7755 92.1053 92.1053 86.7755 92.1053 80.2632V51.8421C92.1053 45.3297 86.7755 40 80.2632 40H51.8421ZM51.8421 44.7368H80.2632C84.2161 44.7368 87.3684 47.8892 87.3684 51.8421V80.2632C87.3684 81.3638 87.1034 82.3904 86.6653 83.3162L70.4317 67.0857C69.232 65.886 67.6429 65.2847 66.0526 65.2847C64.4624 65.2847 62.8702 65.886 61.6704 67.0857L45.44 83.3162C45.0019 82.3904 44.7368 81.3638 44.7368 80.2632V51.8421C44.7368 47.8892 47.8892 44.7368 51.8421 44.7368ZM95.2632 50.2847V81.8421C95.2632 89.2426 89.2426 95.2632 81.8421 95.2632H50.2847C52.4479 98.1337 55.8732 100 59.7368 100H81.8421C91.8542 100 100 91.8542 100 81.8421V59.7368C100 55.8747 98.1337 52.4479 95.2632 50.2847ZM75.5263 52.6316C74.4794 52.6316 73.4754 53.0475 72.7351 53.7877C71.9948 54.528 71.5789 55.532 71.5789 56.5789C71.5789 57.6259 71.9948 58.6299 72.7351 59.3702C73.4754 60.1104 74.4794 60.5263 75.5263 60.5263C76.5732 60.5263 77.5773 60.1104 78.3175 59.3702C79.0578 58.6299 79.4737 57.6259 79.4737 56.5789C79.4737 55.532 79.0578 54.528 78.3175 53.7877C77.5773 53.0475 76.5732 52.6316 75.5263 52.6316ZM66.0526 69.9938C66.4214 69.9938 66.7887 70.1409 67.0826 70.4348L83.3162 86.6653C82.3904 87.1034 81.3638 87.3684 80.2632 87.3684H51.8421C50.7414 87.3684 49.7148 87.1034 48.7891 86.6653L65.0195 70.4348C65.3135 70.1409 65.6838 69.9938 66.0526 69.9938Z" fill="#3D737F"/>
<rect x="1" y="1" width="138" height="138" rx="69" stroke="#A3D9E5" stroke-width="2" stroke-dasharray="10 10"/>
</svg>
