<svg width="21" height="20" viewBox="0 0 21 20" fill="none" xmlns="http://www.w3.org/2000/svg">
<path d="M16.8199 0C15.8751 0 14.9303 0.358195 14.2143 1.07453L2.56099 12.7268C2.33989 12.9479 2.17795 13.2228 2.0921 13.5247L0.53017 18.994C0.49165 19.1293 0.489986 19.2725 0.525351 19.4087C0.560716 19.5449 0.631825 19.6692 0.731323 19.7687C0.830821 19.8682 0.955095 19.9393 1.09129 19.9746C1.22749 20.01 1.37066 20.0083 1.50599 19.9698L6.97636 18.4079L6.97739 18.4069C7.27723 18.3207 7.55152 18.1608 7.77326 17.939L19.4256 6.28575C20.8581 4.85316 20.8581 2.50712 19.4256 1.07453C18.7095 0.358195 17.7648 0 16.8199 0ZM16.8199 1.57015C17.3574 1.57015 17.894 1.77723 18.3078 2.19122H18.3089C19.138 3.02034 19.138 4.33994 18.3089 5.16906L17.2878 6.19012L14.3099 3.21228L15.331 2.19122C15.7448 1.77723 16.2825 1.57015 16.8199 1.57015ZM13.1932 4.32897L16.1711 7.30681L6.65554 16.8223C6.62467 16.853 6.58558 16.8765 6.5414 16.8892L2.43863 18.0614L3.61085 13.9576V13.9566C3.62292 13.9141 3.64503 13.8761 3.67769 13.8435L13.1932 4.32897Z" fill="#FFBA76"/>
</svg>
