<svg width="31" height="29" viewBox="0 0 31 29" fill="none" xmlns="http://www.w3.org/2000/svg">
<path d="M9.26192 0.928467C6.71053 0.928467 4.61906 3.01994 4.61906 5.57132V21.6428H2.11906C1.14506 21.6428 0.333344 22.4545 0.333344 23.4285V24.857C0.333344 26.6195 1.78513 28.0713 3.54763 28.0713H22.8333C24.5958 28.0713 26.0476 26.6195 26.0476 24.857V7.35704H28.5476C29.5216 7.35704 30.3333 6.54532 30.3333 5.57132V4.14275C30.3333 2.43794 28.9718 1.03595 27.2879 0.945208C27.2321 0.935175 27.1757 0.929577 27.1191 0.928467H9.26192ZM9.26192 3.07132H24.1238C24.0009 3.41024 23.9048 3.76376 23.9048 4.14275V6.10983C23.8859 6.22485 23.8859 6.34218 23.9048 6.45721V24.857C23.9048 25.4617 23.438 25.9285 22.8333 25.9285C22.2287 25.9285 21.7619 25.4617 21.7619 24.857V23.4285C21.7619 22.4545 20.9502 21.6428 19.9762 21.6428H6.76192V5.57132C6.76192 4.17842 7.86901 3.07132 9.26192 3.07132ZM27.1191 3.07132C27.7237 3.07132 28.1905 3.53811 28.1905 4.14275V5.21418H26.0476V4.14275C26.0476 3.53811 26.5144 3.07132 27.1191 3.07132ZM10.6905 6.64275C10.5485 6.64074 10.4075 6.66697 10.2758 6.71992C10.144 6.77286 10.0241 6.85146 9.92302 6.95115C9.82191 7.05084 9.74162 7.16963 9.68682 7.30062C9.63202 7.43161 9.6038 7.57219 9.6038 7.71418C9.6038 7.85617 9.63202 7.99675 9.68682 8.12774C9.74162 8.25873 9.82191 8.37752 9.92302 8.47721C10.0241 8.5769 10.144 8.6555 10.2758 8.70844C10.4075 8.76139 10.5485 8.78762 10.6905 8.78561H19.9762C20.1182 8.78762 20.2591 8.76139 20.3909 8.70844C20.5226 8.6555 20.6426 8.5769 20.7437 8.47721C20.8448 8.37752 20.9251 8.25873 20.9799 8.12774C21.0347 7.99675 21.0629 7.85617 21.0629 7.71418C21.0629 7.57219 21.0347 7.43161 20.9799 7.30062C20.9251 7.16963 20.8448 7.05084 20.7437 6.95115C20.6426 6.85146 20.5226 6.77286 20.3909 6.71992C20.2591 6.66697 20.1182 6.64074 19.9762 6.64275H10.6905ZM10.6905 11.6428C10.5485 11.6407 10.4075 11.667 10.2758 11.7199C10.144 11.7729 10.0241 11.8515 9.92302 11.9512C9.82191 12.0508 9.74162 12.1696 9.68682 12.3006C9.63202 12.4316 9.6038 12.5722 9.6038 12.7142C9.6038 12.8562 9.63202 12.9967 9.68682 13.1277C9.74162 13.2587 9.82191 13.3775 9.92302 13.4772C10.0241 13.5769 10.144 13.6555 10.2758 13.7084C10.4075 13.7614 10.5485 13.7876 10.6905 13.7856H19.9762C20.1182 13.7876 20.2591 13.7614 20.3909 13.7084C20.5226 13.6555 20.6426 13.5769 20.7437 13.4772C20.8448 13.3775 20.9251 13.2587 20.9799 13.1277C21.0347 12.9967 21.0629 12.8562 21.0629 12.7142C21.0629 12.5722 21.0347 12.4316 20.9799 12.3006C20.9251 12.1696 20.8448 12.0508 20.7437 11.9512C20.6426 11.8515 20.5226 11.7729 20.3909 11.7199C20.2591 11.667 20.1182 11.6407 19.9762 11.6428H10.6905ZM10.6905 16.6428C10.5485 16.6407 10.4075 16.667 10.2758 16.7199C10.144 16.7729 10.0241 16.8515 9.92302 16.9512C9.82191 17.0508 9.74162 17.1696 9.68682 17.3006C9.63202 17.4316 9.6038 17.5722 9.6038 17.7142C9.6038 17.8562 9.63202 17.9967 9.68682 18.1277C9.74162 18.2587 9.82191 18.3775 9.92302 18.4772C10.0241 18.5769 10.144 18.6555 10.2758 18.7084C10.4075 18.7614 10.5485 18.7876 10.6905 18.7856H18.5476C18.6896 18.7876 18.8306 18.7614 18.9623 18.7084C19.0941 18.6555 19.214 18.5769 19.3151 18.4772C19.4162 18.3775 19.4965 18.2587 19.5513 18.1277C19.6061 17.9967 19.6343 17.8562 19.6343 17.7142C19.6343 17.5722 19.6061 17.4316 19.5513 17.3006C19.4965 17.1696 19.4162 17.0508 19.3151 16.9512C19.214 16.8515 19.0941 16.7729 18.9623 16.7199C18.8306 16.667 18.6896 16.6407 18.5476 16.6428H10.6905ZM2.4762 23.7856H5.51471C5.62973 23.8045 5.74706 23.8045 5.86208 23.7856H19.6191V24.857C19.6191 25.236 19.7152 25.5896 19.8381 25.9285H3.54763C2.94299 25.9285 2.4762 25.4617 2.4762 24.857V23.7856Z" fill="#3D737F"/>
</svg>
