<svg width="50" height="50" viewBox="0 0 50 50" fill="none" xmlns="http://www.w3.org/2000/svg">
<path d="M24.9692 0.000240766C24.4468 0.00840239 23.9489 0.223588 23.5851 0.598532C23.2212 0.973476 23.021 1.47752 23.0285 1.99995V23.0289H1.99953C1.73829 23.0252 1.47892 23.0735 1.23649 23.1709C0.99406 23.2683 0.773412 23.413 0.587365 23.5964C0.401318 23.7798 0.253584 23.9984 0.152748 24.2394C0.0519118 24.4805 -1.52588e-05 24.7391 -1.52588e-05 25.0004C-1.52588e-05 25.2617 0.0519118 25.5203 0.152748 25.7614C0.253584 26.0024 0.401318 26.221 0.587365 26.4044C0.773412 26.5878 0.99406 26.7325 1.23649 26.8299C1.47892 26.9273 1.73829 26.9756 1.99953 26.9719H23.0285V48.0009C23.0248 48.2621 23.0731 48.5215 23.1705 48.7639C23.2679 49.0063 23.4126 49.227 23.596 49.413C23.7794 49.5991 23.998 49.7468 24.239 49.8476C24.4801 49.9485 24.7387 50.0004 25 50.0004C25.2613 50.0004 25.5199 49.9485 25.7609 49.8476C26.002 49.7468 26.2206 49.5991 26.404 49.413C26.5874 49.227 26.732 49.0063 26.8295 48.7639C26.9269 48.5215 26.9751 48.2621 26.9715 48.0009V26.9719H48.0004C48.2617 26.9756 48.5211 26.9273 48.7635 26.8299C49.0059 26.7325 49.2266 26.5878 49.4126 26.4044C49.5987 26.221 49.7464 26.0024 49.8472 25.7614C49.9481 25.5203 50 25.2617 50 25.0004C50 24.7391 49.9481 24.4805 49.8472 24.2394C49.7464 23.9984 49.5987 23.7798 49.4126 23.5964C49.2266 23.413 49.0059 23.2683 48.7635 23.1709C48.5211 23.0735 48.2617 23.0252 48.0004 23.0289H26.9715V1.99995C26.9752 1.73608 26.926 1.47413 26.8267 1.22964C26.7274 0.985145 26.58 0.763076 26.3933 0.576593C26.2066 0.390111 25.9843 0.243009 25.7397 0.144007C25.4951 0.0450048 25.233 -0.00388304 24.9692 0.000240766Z" fill="white"/>
</svg>
