<svg width="20" height="16" viewBox="0 0 20 16" fill="none" xmlns="http://www.w3.org/2000/svg">
<path d="M19.2657 0.66693C19.0804 0.672478 18.9044 0.75189 18.775 0.888354L6.43344 13.5639L1.2286 8.21827C1.16284 8.14792 1.08407 8.09176 0.996914 8.05307C0.909754 8.01438 0.815953 7.99394 0.721006 7.99295C0.626059 7.99196 0.531873 8.01043 0.443965 8.04729C0.356057 8.08415 0.276194 8.13866 0.209052 8.20762C0.141911 8.27658 0.0888412 8.3586 0.052951 8.44889C0.0170607 8.53918 -0.000928469 8.63591 3.6892e-05 8.73343C0.00100225 8.83094 0.0209028 8.92728 0.058573 9.0168C0.0962432 9.10632 0.150926 9.18722 0.219419 9.25476L5.92884 15.1187C6.06269 15.2561 6.24419 15.3333 6.43344 15.3333C6.62268 15.3333 6.80418 15.2561 6.93803 15.1187L19.7842 1.92485C19.8872 1.82186 19.9575 1.68935 19.9859 1.54465C20.0143 1.39996 19.9996 1.24982 19.9435 1.11389C19.8875 0.977963 19.7928 0.862572 19.6719 0.782823C19.5509 0.703074 19.4094 0.66268 19.2657 0.66693Z" fill="white"/>
</svg>
